<?xml version="1.0" standalone="no"?>
<!DOCTYPE svg PUBLIC "-//W3C//DTD SVG 20010904//EN"
 "http://www.w3.org/TR/2001/REC-SVG-20010904/DTD/svg10.dtd">
<svg version="1.0" xmlns="http://www.w3.org/2000/svg"
 width="500.000000pt" height="500.000000pt" viewBox="0 0 500.000000 500.000000"
 preserveAspectRatio="xMidYMid meet">

<g transform="translate(0.000000,500.000000) scale(0.100000,-0.100000)"
fill="#000000" stroke="none">
<path d="M0 2500 l0 -2500 2500 0 2500 0 0 2500 0 2500 -2500 0 -2500 0 0
-2500z m2465 1850 c-29 -13 -104 -13 -85 0 8 5 35 9 60 9 34 0 40 -2 25 -9z
m224 -10 c-23 -13 -42 -65 -35 -93 3 -13 17 -40 31 -61 14 -21 20 -36 13 -34
-7 3 -24 24 -37 48 l-24 43 -20 -39 c-11 -21 -22 -33 -24 -26 -3 6 13 46 35
86 35 64 38 75 24 79 -9 3 -1 5 18 6 27 0 31 -2 19 -9z m-481 -39 c2 -19 -1
-31 -6 -27 -5 3 -7 16 -5 30 4 17 0 26 -14 30 -16 4 -15 5 2 3 15 -2 21 -11
23 -36z m532 -2 c0 -19 -28 -40 -52 -38 -7 0 -3 4 10 9 29 12 38 36 21 58 -13
15 -12 16 4 3 9 -7 17 -22 17 -32z m-590 17 c-20 -25 -8 -58 25 -69 40 -13 55
-26 55 -48 0 -20 -25 -49 -43 -49 -6 0 -1 7 11 16 34 23 27 43 -23 64 -38 16
-45 24 -45 48 0 15 5 33 12 40 17 17 23 15 8 -2z m267 -71 c-14 -51 -23 -71
-25 -56 -3 20 36 146 43 139 2 -2 -6 -39 -18 -83z m533 39 c0 -3 -11 -19 -24
-35 -28 -33 -29 -77 -2 -129 10 -21 11 -30 3 -27 -7 2 -19 24 -27 50 l-15 47
-27 -33 c-49 -59 -29 -9 22 55 45 54 49 63 33 70 -14 5 -12 7 10 7 15 1 27 -2
27 -5z m45 -63 c-3 -12 -15 -21 -25 -21 -18 0 -18 2 3 23 26 27 31 26 22 -2z
m-861 -25 c-3 -8 5 -23 17 -34 l21 -21 -22 6 c-12 3 -24 12 -27 19 -5 14 2 44
11 44 3 0 3 -6 0 -14z m-333 -17 c8 -15 8 -24 0 -32 -8 -8 -11 -4 -11 15 0 15
-6 29 -12 31 -10 4 -10 6 -1 6 7 1 17 -8 24 -20z m-19 -69 c9 0 9 -3 0 -12
-20 -20 -14 -65 10 -82 17 -12 19 -16 6 -16 -35 0 -48 12 -48 44 0 18 6 38 13
45 10 10 9 14 -5 22 -11 6 -18 21 -18 37 1 27 1 27 15 -5 8 -18 20 -33 27 -33z
m1410 50 c-12 -5 -27 -20 -33 -33 -6 -13 -25 -27 -42 -33 -27 -8 -32 -14 -32
-41 0 -24 -3 -29 -12 -21 -33 27 -4 78 44 78 11 0 23 12 30 30 9 24 17 30 40
29 27 0 27 -1 5 -9z m28 -35 c-7 -8 -18 -15 -24 -15 -6 0 -3 5 7 11 9 5 17 18
18 27 0 11 2 12 6 4 3 -7 -1 -19 -7 -27z m-1572 -197 c10 -12 11 -18 3 -18 -6
0 -26 23 -43 50 -17 28 -35 50 -39 50 -5 0 -9 15 -9 33 0 30 2 29 37 -33 20
-36 43 -73 51 -82z m1792 77 c23 -25 23 -26 3 -14 -26 15 -42 9 -122 -52 -33
-25 -51 -34 -51 -24 0 8 32 33 71 56 65 39 70 44 53 56 -10 7 -21 13 -26 13
-4 0 -8 5 -8 10 0 15 51 -14 80 -45z m-1886 -54 c16 -22 32 -38 37 -35 5 3 9
-5 9 -18 -1 -20 -5 -18 -40 22 -22 25 -44 44 -50 43 -5 -2 -10 4 -10 13 0 11
-5 14 -16 10 -14 -5 -15 -4 -4 9 17 20 39 7 74 -44z m-73 -3 c11 -21 11 -22
-4 -9 -10 7 -17 17 -17 22 0 15 9 10 21 -13z m48 -48 c0 -9 -4 -8 -9 5 -5 11
-9 27 -9 35 0 9 4 8 9 -5 5 -11 9 -27 9 -35z m2015 -24 c-10 -8 -21 -12 -24
-10 -5 6 21 24 34 24 6 0 1 -6 -10 -14z m-1996 -51 c0 -16 -2 -15 -8 5 -11 34
-11 60 0 35 5 -11 8 -29 8 -40z m2037 16 c-4 -12 -31 -32 -71 -51 -41 -19 -62
-35 -58 -42 4 -7 3 -8 -4 -4 -23 14 -11 34 30 51 63 25 100 54 93 74 -5 12 -3
13 5 5 7 -7 9 -21 5 -33z m-1690 -48 c59 -128 80 -166 121 -211 23 -26 51 -58
62 -72 20 -24 21 -24 40 -7 11 10 26 20 34 21 59 11 95 29 111 53 18 28 18 28
13 3 -3 -14 -8 -68 -11 -120 -3 -52 -8 -116 -11 -142 -4 -38 -2 -48 10 -48 9
0 17 15 21 43 4 23 12 50 17 60 9 18 10 18 23 0 11 -16 11 -31 -1 -92 -7 -41
-11 -78 -7 -84 4 -6 0 -8 -11 -4 -10 4 -19 1 -22 -8 -8 -20 27 -115 41 -115 7
0 17 -10 23 -22 10 -22 11 -22 11 5 1 16 -5 38 -11 50 -19 34 -18 65 7 152 32
110 43 230 22 253 -14 16 -21 45 -18 85 1 21 59 24 67 3 3 -8 13 -12 25 -9 11
3 19 0 19 -6 0 -7 -6 -9 -12 -5 -7 4 -10 3 -5 -1 4 -5 -1 -17 -10 -28 -17 -19
-17 -20 4 -8 33 17 40 38 41 112 1 70 16 124 32 114 15 -9 30 -75 30 -132 0
-41 5 -57 22 -73 12 -11 29 -20 37 -20 12 1 10 5 -7 20 l-23 19 21 21 c21 21
21 21 2 48 -11 15 -28 45 -38 67 -10 22 -20 43 -22 48 -2 4 3 5 11 1 8 -3 20
-17 28 -32 21 -43 72 -122 78 -122 3 0 19 16 34 36 16 19 36 34 44 32 8 -2 23
-25 32 -53 12 -33 24 -51 37 -54 27 -5 124 -49 155 -72 15 -10 33 -19 41 -18
30 1 208 279 208 326 0 7 9 17 20 23 64 34 117 -179 85 -344 -17 -86 -27 -120
-61 -208 l-26 -69 30 -62 c67 -137 92 -321 62 -470 -19 -99 -70 -226 -125
-311 -34 -52 -154 -171 -190 -187 -11 -5 -33 -18 -50 -29 -65 -42 -104 -60
-122 -53 -14 5 -12 -1 8 -23 36 -40 67 -100 78 -151 11 -53 -4 -194 -25 -239
-44 -92 -188 -194 -274 -194 -57 0 -53 24 6 39 72 18 164 68 174 95 5 13 14
27 20 31 7 4 23 31 36 59 19 40 24 68 24 132 0 103 -27 162 -111 237 -60 54
-72 77 -43 77 10 0 14 6 11 14 -6 15 18 56 40 69 7 4 13 15 13 22 0 8 5 15 11
15 15 0 79 -40 79 -49 0 -4 -27 -20 -61 -36 -33 -16 -62 -32 -64 -36 -2 -3 9
-16 26 -28 29 -22 30 -22 20 -2 -10 18 -7 22 21 37 18 9 44 25 57 35 17 14 28
16 42 8 13 -7 19 -6 19 2 0 6 34 45 74 88 102 104 142 159 166 228 12 32 25
66 31 75 5 10 9 27 9 39 0 20 -1 21 -17 6 -22 -19 -162 -87 -180 -87 -16 0
-16 5 -3 31 9 15 7 19 -5 19 -35 0 -6 26 49 44 42 14 54 21 44 28 -9 7 -6 8
10 5 12 -3 20 -1 16 4 -5 9 25 14 55 9 18 -2 91 70 91 90 -1 12 -2 12 -11 -2
-19 -34 -27 -18 -22 44 6 59 6 61 -13 44 -82 -72 -92 -78 -102 -59 -8 14 0 30
43 78 30 33 57 56 62 52 4 -5 0 -13 -10 -18 -21 -12 -22 -26 -2 -26 25 0 26
63 3 96 -10 13 -22 40 -28 60 -16 56 -24 65 -49 52 -36 -20 -23 6 15 29 19 12
32 25 29 28 -3 3 -11 0 -17 -6 -7 -7 -16 -12 -21 -12 -5 0 1 9 14 20 32 26 15
26 -22 -1 -16 -11 -29 -28 -29 -38 0 -9 -5 -22 -12 -29 -9 -9 -7 -12 12 -13
14 -1 30 -1 36 0 14 2 6 -47 -9 -56 -7 -4 -8 0 -3 12 5 15 4 16 -8 6 -17 -15
-66 -133 -66 -162 0 -18 -2 -19 -15 -5 -8 8 -24 18 -35 21 -27 9 -26 47 5 113
28 61 29 66 14 56 -6 -4 -5 4 2 17 8 13 14 31 15 40 1 10 11 30 23 47 25 36
27 50 4 31 -11 -10 -14 -10 -9 -1 4 6 2 12 -3 12 -6 0 -11 -5 -11 -11 0 -6
-16 -38 -36 -71 -19 -34 -40 -86 -46 -117 -5 -31 -11 -58 -13 -59 -2 -2 -11
10 -19 27 -19 36 -21 92 -4 109 9 9 9 15 1 23 -7 7 -8 22 -1 45 6 24 6 46 -3
71 -7 22 -9 60 -5 102 l7 67 -53 35 c-29 18 -55 35 -58 36 -3 2 -5 -60 -5
-137 0 -77 3 -140 6 -140 16 0 31 63 25 104 -7 46 0 96 14 96 4 0 13 -14 19
-31 14 -42 1 -97 -49 -200 -45 -92 -52 -122 -22 -97 20 18 43 13 35 -8 -3 -8
-1 -14 5 -14 12 0 19 27 27 115 13 127 23 102 19 -45 -2 -80 -1 -139 2 -132 3
6 10 12 15 12 15 0 -2 -131 -21 -170 -12 -23 -46 -56 -96 -90 -42 -30 -101
-77 -129 -105 -50 -47 -53 -53 -59 -109 l-5 -60 19 32 c19 31 40 44 120 73 46
18 117 84 137 128 l16 36 7 -30 6 -30 21 33 20 32 7 -94 c3 -51 3 -101 0 -110
-10 -27 -77 -55 -159 -67 -68 -10 -79 -15 -100 -44 -29 -37 -30 -43 -10 -81
15 -28 15 -28 15 -5 0 13 3 21 7 17 4 -4 15 8 26 26 10 18 15 24 11 13 -4 -11
-13 -46 -20 -78 -16 -73 -44 -157 -60 -177 -7 -8 -14 -26 -16 -39 -1 -14 -10
-27 -18 -29 -13 -5 -13 -3 -1 11 7 10 9 17 3 17 -5 0 -12 -7 -16 -15 -4 -11
-18 -15 -43 -14 -21 0 -57 -2 -81 -6 -51 -9 -82 12 -82 55 0 40 -9 42 -44 12
-97 -85 -123 -119 -145 -187 -11 -38 -21 -85 -21 -105 0 -53 40 -153 82 -203
41 -49 142 -104 211 -113 30 -4 47 -12 47 -20 0 -31 -136 -7 -204 35 -17 11
-54 44 -83 73 -111 114 -128 303 -38 439 l24 37 -46 13 c-25 7 -64 26 -87 43
-23 17 -53 39 -67 48 -15 9 -57 47 -94 83 -51 51 -75 84 -102 143 -19 42 -38
86 -44 97 -44 93 -71 336 -50 447 16 85 40 158 52 158 6 0 8 4 4 10 -3 5 3 28
14 52 23 52 32 88 21 88 -9 0 -29 73 -35 129 -25 211 -26 248 -4 341 11 47 21
91 24 98 10 28 35 9 60 -45z m-498 -42 c27 -30 34 -34 43 -21 7 11 10 11 10 2
0 -21 -30 -25 -50 -7 -16 14 -23 15 -34 6 -13 -11 -12 -18 4 -57 11 -24 15
-44 10 -44 -5 0 -14 16 -21 35 -10 27 -16 32 -26 23 -24 -20 -14 9 13 35 25
25 25 26 8 53 -16 24 -19 25 -25 8 -4 -12 -7 -5 -7 21 l0 40 22 -29 c11 -17
36 -46 53 -65z m1079 -18 c-19 -38 -39 -79 -44 -92 -5 -14 -11 -21 -14 -15 -8
12 69 174 82 174 6 0 -5 -30 -24 -67z m1104 18 c0 -5 -16 -15 -36 -21 -19 -7
-38 -18 -41 -26 -7 -19 -24 -7 -21 14 2 10 19 22 43 28 54 15 55 15 55 5z m94
-32 c-11 -10 -32 -20 -49 -24 l-30 -6 33 15 c18 8 35 22 38 31 3 8 11 12 16 9
6 -4 2 -14 -8 -25z m-101 -36 c-13 -2 -33 -2 -45 0 -13 2 -3 4 22 4 25 0 35
-2 23 -4z m-1213 -55 c0 -6 -6 -5 -15 2 -8 7 -15 14 -15 16 0 2 7 1 15 -2 8
-4 15 -11 15 -16z m-1160 -23 c20 -24 6 -28 -15 -5 -10 11 -13 20 -8 20 6 0
16 -7 23 -15z m-16 -87 c20 -30 58 -58 80 -58 8 0 20 8 25 18 6 9 11 12 11 7
0 -19 -23 -35 -51 -35 -47 0 -100 69 -98 128 1 27 1 27 8 -3 4 -17 15 -42 25
-57z m136 -5 c0 -2 -4 -1 -10 2 -5 3 -10 0 -10 -7 -1 -7 -8 -1 -16 15 -15 27
-44 37 -44 15 0 -6 -3 -8 -6 -5 -4 4 -1 13 6 21 10 14 16 12 46 -10 19 -15 34
-28 34 -31z m2481 40 c13 -16 12 -17 -4 -4 -14 11 -23 11 -42 3 -14 -7 -25
-16 -25 -22 0 -7 -6 -7 -20 0 -30 16 -74 9 -78 -13 -2 -10 5 -28 15 -40 l18
-22 -23 19 c-34 29 -27 80 10 84 15 2 36 -1 46 -7 15 -8 23 -7 32 4 17 20 55
19 71 -2z m-11 -49 c0 -2 -7 -4 -15 -4 -8 0 -15 4 -15 10 0 5 7 7 15 4 8 -4
15 -8 15 -10z m-2670 -168 c1 5 7 -4 14 -21 8 -16 21 -39 29 -49 14 -19 15
-19 32 15 10 19 20 29 22 22 4 -12 -37 -83 -48 -83 -3 0 -6 6 -6 13 0 7 -8 25
-18 41 -17 26 -20 27 -26 10 -6 -16 -8 -15 -8 7 -1 14 -10 34 -22 45 -20 18
-21 18 -41 -6 -21 -27 -21 -21 2 23 l13 27 29 -27 c15 -15 28 -23 28 -17z
m2718 -23 l27 -12 -27 5 c-21 5 -28 2 -28 -10 0 -12 10 -16 43 -16 31 0 38 3
27 10 -8 5 -10 10 -4 10 5 0 19 -7 30 -15 18 -13 16 -14 -21 -15 -76 -2 -120
-14 -119 -33 2 -14 -1 -15 -12 -6 -21 18 -17 29 17 41 45 16 34 40 -26 55
l-50 13 48 -4 c41 -3 47 -1 43 13 -4 11 -2 10 9 -4 8 -10 28 -25 43 -32z
m-2789 -51 c14 -13 14 -13 -4 -10 -13 2 -21 12 -22 28 -1 14 0 18 3 10 4 -8
14 -21 23 -28z m-24 -173 c11 -16 2 -17 -25 -2 -24 12 -24 13 -3 13 12 0 25
-5 28 -11z m2853 -14 c35 -8 68 -13 73 -9 5 3 9 -1 9 -10 0 -12 -6 -13 -36 -4
-46 12 -85 -3 -119 -46 -13 -17 -27 -27 -31 -23 -4 3 13 25 37 47 l44 40 -30
0 c-17 0 -37 5 -45 10 -23 15 23 12 98 -5z m-2829 -46 c-20 -13 -45 -11 -57 4
-8 10 -2 12 30 9 28 -3 36 -7 27 -13z m2863 -35 c10 -3 27 0 36 8 15 12 16 11
3 -4 -7 -10 -22 -18 -32 -18 -18 0 -50 36 -48 55 0 5 5 0 11 -12 6 -13 19 -25
30 -29z m-2787 -2 c30 6 33 -7 4 -22 -24 -14 -69 10 -69 37 0 14 2 14 20 -2
12 -11 29 -16 45 -13z m2043 -40 c32 -5 27 -25 -14 -62 -48 -42 -59 -30 -44
46 15 74 23 87 30 49 4 -21 12 -31 28 -33z m17 17 c-5 -7 -11 -6 -21 2 -11 9
-12 15 -2 26 10 12 13 12 20 -1 5 -9 6 -21 3 -27z m-195 -129 c11 -6 25 -8 30
-5 6 3 10 2 10 -4 0 -10 -77 -38 -84 -30 -2 2 -7 29 -11 59 l-6 55 20 -32 c11
-17 29 -37 41 -43z m228 -50 c-2 -40 -2 -40 -21 -21 -16 15 -17 22 -8 40 18
33 32 25 29 -19z m-53 -59 c0 -9 -26 -23 -68 -37 -38 -12 -74 -27 -80 -33 -17
-17 -24 -13 -24 13 0 21 5 26 41 31 61 10 77 15 71 26 -3 5 2 6 11 2 12 -4 15
-3 10 6 -6 9 -1 12 15 9 13 -1 24 -9 24 -17z m-325 -22 c0 -19 -104 -115 -137
-127 -18 -6 -33 -7 -33 -3 0 15 45 74 65 85 11 6 35 21 55 34 39 24 50 27 50
11z m322 -162 c-8 -19 -20 -34 -26 -35 -6 0 -28 -4 -48 -8 -29 -5 -38 -3 -38
7 0 23 13 33 60 50 67 24 70 24 52 -14z m-86 -92 c9 -19 6 -24 -27 -43 -39
-22 -113 -30 -124 -13 -9 16 18 26 72 26 29 0 58 6 64 13 10 10 6 12 -24 12
-20 0 -37 4 -37 8 0 14 7 17 37 18 20 1 32 -5 39 -21z m-1966 -112 c0 -8 -7
-8 -30 0 -17 7 -26 13 -20 15 5 2 8 7 5 12 -3 4 6 3 20 -3 14 -7 25 -17 25
-24z m2770 5 c0 -5 -7 -8 -15 -8 -8 0 -15 5 -15 11 0 5 -4 7 -10 4 -5 -3 -7 0
-4 9 5 12 9 13 25 3 10 -6 19 -15 19 -19z m-881 -27 c-23 -22 -43 -41 -45 -41
-2 0 -11 14 -19 30 -12 24 -13 31 -3 35 19 6 103 22 106 20 1 -1 -16 -21 -39
-44z m-1810 8 c-23 -14 -43 -11 -30 4 6 8 7 17 3 22 -4 4 4 2 17 -5 19 -10 21
-14 10 -21z m2781 22 c0 -13 -29 -35 -37 -28 -7 8 15 37 28 37 5 0 9 -4 9 -9z
m-1040 -77 c0 -8 -4 -12 -10 -9 -5 3 -10 10 -10 16 0 5 5 9 10 9 6 0 10 -7 10
-16z m-1903 -24 c49 -33 62 -38 43 -15 -10 12 -10 18 1 32 13 14 15 13 19 -13
5 -23 11 -28 28 -27 12 2 22 -2 22 -7 0 -6 -4 -10 -10 -10 -5 0 -10 -9 -10
-20 0 -11 -3 -20 -7 -20 -7 0 -143 102 -143 107 0 8 16 0 57 -27z m129 3 c-7
-7 -26 7 -26 19 0 6 6 6 15 -2 9 -7 13 -15 11 -17z m2664 -8 c32 -25 45 -28
25 -6 -16 19 -17 24 -5 31 12 7 17 2 23 -20 8 -30 31 -40 40 -17 4 9 6 9 6 0
1 -6 -3 -15 -9 -18 -5 -3 -10 -15 -10 -26 0 -19 -4 -18 -42 10 -24 17 -56 42
-73 56 l-30 25 30 -12 c17 -6 37 -17 45 -23z m110 14 c0 -6 -4 -7 -10 -4 -5 3
-10 11 -10 16 0 6 5 7 10 4 6 -3 10 -11 10 -16z m20 -33 c0 -2 -8 -10 -17 -17
-16 -13 -17 -12 -4 4 13 16 21 21 21 13z m-2780 -10 c0 -2 -8 -10 -17 -17 -16
-13 -17 -12 -4 4 13 16 21 21 21 13z m1258 -145 c3 -8 -1 -12 -9 -9 -7 2 -15
10 -17 17 -3 8 1 12 9 9 7 -2 15 -10 17 -17z m-18 -29 c0 -5 14 -8 32 -6 17 2
37 -1 44 -7 8 -6 14 -7 18 0 7 11 36 4 36 -10 0 -4 -7 -6 -15 -3 -8 4 -15 1
-15 -5 0 -6 -7 -11 -15 -11 -8 0 -15 5 -15 11 0 6 -7 8 -16 5 -9 -4 -22 -2
-28 3 -9 8 -12 1 -13 -24 -1 -19 -11 -50 -23 -70 -30 -48 -21 -63 18 -30 37
31 42 22 9 -16 -18 -22 -26 -25 -44 -18 -27 10 -28 18 -8 83 19 64 20 61 -17
85 -30 19 -31 21 -10 21 13 0 21 4 18 9 -4 5 -1 11 6 13 14 5 38 -15 38 -30z
m177 -9 c3 4 13 2 20 -5 10 -8 17 -8 21 -2 9 13 53 13 49 0 -7 -22 -127 -7
-127 16 0 7 6 6 15 -2 9 -7 18 -10 22 -7z m202 -24 c86 -119 76 -254 -27 -362
-92 -97 -223 -119 -345 -59 -55 27 -117 85 -104 98 2 3 22 -12 43 -31 67 -61
110 -79 189 -79 79 0 128 20 195 80 45 41 90 125 90 168 0 43 -20 102 -54 164
-34 61 -54 56 -31 -7 18 -51 21 -117 4 -88 -5 9 -8 21 -5 25 3 5 -2 31 -10 58
-25 83 6 102 55 33z m-508 -67 c-6 -11 -14 -46 -17 -78 -5 -41 -9 -52 -15 -39
-9 25 -2 67 19 125 10 27 18 38 20 28 2 -9 -1 -26 -7 -36z m317 -39 c81 6 74
-1 -12 -14 -54 -7 -73 -6 -96 6 -40 21 -38 25 8 13 20 -6 65 -8 100 -5z m142
-35 c9 -3 10 -7 4 -11 -6 -3 -24 8 -40 26 -23 26 -24 28 -4 11 14 -12 32 -23
40 -26z m877 -230 c54 -60 52 -188 -3 -188 -17 0 -37 47 -27 63 5 7 10 0 13
-18 8 -47 34 -39 38 12 4 52 -18 106 -52 129 -25 16 -28 16 -49 -2 l-22 -19
19 23 c11 12 29 22 41 22 12 0 31 -10 42 -22z m-1980 -10 c35 -32 25 -79 -16
-78 -14 1 -13 3 2 14 37 28 14 76 -36 76 l-29 0 7 -64 c6 -59 5 -65 -15 -76
-11 -6 -31 -9 -43 -7 -19 4 -19 4 4 6 42 2 52 21 37 74 -9 37 -9 49 1 61 19
23 61 20 88 -6z m1880 -65 c-3 -10 -5 -2 -5 17 0 19 2 27 5 18 2 -10 2 -26 0
-35z m-2030 -14 c-23 -18 -26 -24 -15 -38 8 -11 6 -11 -8 2 -19 18 -19 19 5
38 13 10 28 19 35 19 6 0 -2 -10 -17 -21z m1907 -37 c-21 -14 -11 -122 11
-122 8 0 17 -4 20 -10 3 -6 -1 -7 -9 -4 -13 5 -16 -3 -17 -42 -2 -48 -2 -48
-8 -11 -3 21 -10 39 -16 40 -15 3 -18 -52 -4 -69 8 -9 8 -14 1 -14 -17 0 -33
36 -25 57 3 10 12 25 19 33 8 10 11 30 7 58 -6 47 -19 52 -65 28 -29 -15 -37
-9 -16 12 7 7 22 12 35 12 13 0 31 9 40 20 10 11 22 20 28 20 6 0 6 -3 -1 -8z
m17 -15 c-10 -9 -11 -8 -5 6 3 10 9 15 12 12 3 -3 0 -11 -7 -18z m-1597 -7
c31 0 46 -18 46 -55 0 -32 -32 -71 -77 -94 -31 -16 -88 -14 -103 5 -11 13 -10
18 7 36 13 12 23 16 27 10 3 -6 -3 -14 -14 -17 -29 -9 -19 -29 16 -33 33 -3
86 28 117 69 40 55 -11 94 -64 50 -24 -20 -24 -20 -4 -35 11 -8 16 -16 11 -16
-5 0 -18 7 -28 16 -17 16 -16 18 10 48 15 18 29 28 30 24 2 -4 14 -8 26 -8z
m217 -186 c-17 -89 -14 -91 33 -26 24 33 50 63 57 67 17 11 5 -9 -53 -81 -26
-34 -48 -67 -48 -73 0 -6 -5 -11 -11 -11 -12 0 -7 84 7 140 5 16 -9 3 -39 -37
-26 -35 -49 -63 -52 -63 -7 0 -5 2 60 99 54 81 63 78 46 -15z m1115 68 c48
-32 43 -147 -10 -191 -10 -9 -9 -2 5 26 23 45 24 94 4 133 -18 34 -39 38 -69
13 -21 -18 -21 -18 -2 5 19 22 51 28 72 14z m-91 -79 c-5 -41 13 -104 32 -110
7 -3 16 10 22 29 8 30 9 31 10 7 1 -35 -23 -56 -44 -39 -21 17 -38 86 -30 121
9 42 16 36 10 -8z m-690 -3 c18 -8 17 -9 -6 -9 -23 -1 -31 -11 -62 -78 l-35
-78 26 -12 c25 -12 23 -12 -18 -7 -51 7 -93 26 -47 22 25 -3 30 3 62 77 19 44
35 81 35 82 0 1 -10 4 -22 6 -15 3 -10 5 12 5 19 0 44 -3 55 -8z m505 -4 c0
-8 -7 -48 -16 -91 -9 -42 -14 -79 -11 -81 2 -3 17 0 32 6 15 6 30 9 32 6 9 -9
-38 -26 -84 -31 -40 -5 -44 -4 -23 5 13 6 25 12 27 13 1 2 7 44 14 95 6 51 16
92 20 92 5 0 9 -6 9 -14z m-330 -56 c-14 -50 -13 -52 22 -48 27 3 33 9 47 48
8 25 16 38 18 30 2 -8 -10 -53 -27 -100 -25 -71 -32 -75 -18 -9 2 9 -7 15 -28
17 -27 3 -32 -1 -42 -30 -7 -18 -9 -22 -7 -8 3 14 11 53 17 87 7 35 16 59 20
55 4 -4 3 -23 -2 -42z m-481 -41 c-24 -15 -30 -10 -11 9 9 10 19 14 21 9 2 -5
-3 -13 -10 -18z m567 -75 c-4 -9 -9 -15 -11 -12 -3 3 -3 13 1 22 4 9 9 15 11
12 3 -3 3 -13 -1 -22z m614 -502 c0 -10 -15 -44 -34 -75 -36 -60 -55 -117 -38
-117 13 0 49 45 57 71 10 30 26 22 20 -8 l-6 -28 25 30 c14 17 26 33 26 38 0
4 9 7 20 7 25 0 26 -25 2 -42 -21 -15 -36 -48 -23 -48 5 0 21 14 34 30 31 36
37 37 37 8 1 -22 2 -22 25 7 13 16 26 27 29 24 3 -3 -8 -20 -24 -38 -17 -18
-30 -37 -30 -42 0 -6 -4 -7 -10 -4 -5 3 -10 16 -10 27 l0 21 -23 -21 c-29 -28
-47 -28 -47 -1 0 18 -3 19 -15 9 -8 -6 -18 -9 -24 -6 -5 4 -19 -7 -31 -24 -35
-49 -61 -34 -56 30 3 29 9 45 43 118 24 51 53 70 53 34z m1290 -5 c0 -12 -16
-47 -35 -77 -32 -50 -47 -110 -27 -110 4 0 24 25 43 55 20 32 41 55 52 55 22
0 22 -25 -1 -42 -21 -15 -36 -48 -23 -48 5 0 21 14 35 31 14 17 26 27 26 23 0
-13 -53 -64 -67 -64 -7 0 -13 8 -13 18 0 12 -7 8 -26 -15 -36 -46 -51 -42 -56
13 -2 25 0 48 4 50 3 2 12 21 19 42 13 42 46 92 60 92 5 0 9 -10 9 -23z
m-1549 -48 c-12 -28 -20 -57 -17 -65 9 -22 -13 -69 -25 -57 -15 15 5 108 32
152 29 48 35 30 10 -30z m93 45 c7 -18 -20 -74 -36 -74 -7 0 -4 -6 7 -13 40
-30 -21 -107 -85 -107 -21 0 -18 4 17 19 40 19 69 53 59 70 -8 13 -56 20 -56
8 0 -6 -3 -8 -6 -5 -11 11 68 118 87 118 4 0 10 -7 13 -16z m1251 -18 c-15
-23 -15 -25 2 -29 15 -4 14 -5 -3 -6 -14 -1 -25 -11 -32 -28 -20 -55 -32 -96
-28 -100 2 -3 22 18 43 46 38 50 61 66 48 34 -17 -41 -18 -56 -5 -48 9 5 11 4
6 -3 -10 -16 -36 -15 -36 1 0 6 -14 -4 -30 -23 -33 -38 -51 -31 -42 17 7 38
-20 24 -30 -15 -6 -22 -15 -32 -27 -32 -27 0 -33 25 -10 46 13 12 19 28 17 47
-2 17 2 32 8 34 7 2 12 -2 11 -9 -2 -54 22 -58 48 -7 19 35 19 37 -2 42 -15 4
-14 5 3 6 12 0 26 12 32 26 6 14 19 25 27 25 14 0 14 -3 0 -24z m-1065 -47
c-7 -11 -14 -19 -16 -16 -7 7 7 37 17 37 6 0 5 -9 -1 -21z m340 0 c-7 -11 -14
-19 -16 -16 -7 7 7 37 17 37 6 0 5 -9 -1 -21z m343 -32 c-7 -27 -42 -67 -59
-67 -7 0 -17 8 -23 18 -8 13 -2 25 26 54 39 40 66 38 56 -5z m-810 17 c8 -8
-3 -34 -15 -34 -6 0 -5 6 2 15 9 10 9 15 1 15 -6 0 -12 -4 -12 -10 -2 -14 -5
-22 -14 -43 -11 -27 2 -33 27 -11 l23 18 -22 -23 c-29 -32 -56 -22 -47 16 13
55 36 78 57 57z m357 -7 c0 -8 -9 -22 -20 -32 -21 -19 -27 -45 -11 -45 5 0 19
12 31 28 13 17 17 19 11 6 -21 -44 -71 -58 -71 -19 0 8 -4 15 -9 15 -5 0 3 14
17 30 28 32 52 39 52 17z m144 2 c-4 -7 -7 -21 -8 -33 -1 -11 -6 -21 -13 -21
-6 0 -15 -3 -19 -7 -18 -19 -39 9 -28 37 10 26 25 16 18 -11 -9 -36 9 -24 26
16 7 16 17 30 22 30 5 0 6 -5 2 -11z m46 6 c0 -3 -7 -17 -16 -30 -17 -26 -7
-34 14 -13 7 7 12 8 12 2 0 -12 -21 -34 -32 -34 -19 0 -26 45 -10 63 14 16 32
23 32 12z m301 -23 c-14 -27 -14 -45 1 -36 7 4 8 3 4 -4 -4 -7 -14 -12 -22
-12 -19 0 -18 39 3 62 20 23 28 17 14 -10z m-209 -21 c-14 -39 -6 -39 36 2 33
31 33 32 29 7 -2 -14 -11 -42 -21 -62 -9 -21 -16 -41 -16 -45 0 -20 -32 -52
-45 -47 -24 10 -17 34 20 75 37 41 49 75 17 46 -10 -10 -24 -17 -30 -17 -15 0
-15 35 -1 62 16 29 23 14 11 -21z m294 30 c-3 -5 1 -11 9 -15 12 -4 13 -11 5
-31 -16 -41 -12 -42 21 -5 l31 35 -22 -32 c-25 -39 -39 -48 -51 -36 -6 6 -6
20 0 36 12 32 1 35 -24 7 -10 -11 -21 -20 -25 -20 -14 0 -20 33 -9 46 17 21
28 17 21 -8 -5 -21 -4 -22 11 -9 9 7 17 20 17 27 0 8 5 14 11 14 5 0 8 -4 5
-9z m342 -34 c-11 -21 -10 -21 8 -7 16 12 15 10 -2 -10 -12 -14 -27 -42 -34
-63 -16 -50 -37 -72 -56 -56 -20 16 -19 19 26 73 22 26 37 52 34 57 -7 13 16
40 27 33 5 -3 4 -15 -3 -27z"/>
<path d="M1847 3789 c-10 -37 -8 -42 9 -25 10 11 12 21 6 32 -8 14 -10 13 -15
-7z"/>
<path d="M3225 3785 c-19 -72 -91 -194 -166 -281 -22 -25 -38 -48 -35 -51 6
-6 83 78 123 135 35 49 97 197 90 215 -3 7 -8 -1 -12 -18z"/>
<path d="M3266 3777 c13 -54 33 -112 33 -99 1 22 -21 106 -31 117 -6 6 -7 -1
-2 -18z"/>
<path d="M1870 3745 c0 -72 191 -318 222 -287 9 9 8 12 -3 12 -31 0 -147 140
-175 211 -10 24 -23 53 -31 64 -13 19 -13 19 -13 0z"/>
<path d="M1822 3625 c0 -60 13 -188 17 -160 0 5 13 -13 27 -40 56 -110 97
-158 169 -202 38 -24 73 -43 77 -43 31 0 -46 169 -89 197 -15 9 -56 41 -90 71
-66 57 -83 90 -101 192 l-9 55 -1 -70z"/>
<path d="M2706 3636 c-10 -17 -14 -35 -10 -56 5 -23 0 -39 -21 -70 -23 -33
-26 -45 -20 -82 4 -24 15 -63 26 -86 18 -43 32 -111 33 -164 1 -14 5 -24 10
-20 6 3 6 -3 2 -14 -4 -10 -10 -35 -13 -54 -5 -34 -5 -34 11 -15 17 19 17 18
11 -33 -3 -29 -8 -60 -11 -70 -5 -16 -5 -16 5 0 6 9 14 44 17 77 5 45 13 66
30 82 13 12 24 33 24 47 0 24 -1 24 -25 8 l-25 -16 -1 42 c-1 24 -2 76 -4 116
-1 39 1 72 5 72 4 0 18 -28 31 -62 l24 -63 3 73 c2 54 -4 98 -23 170 -40 152
-48 164 -79 118z"/>
<path d="M3292 3617 c-6 -15 -15 -39 -18 -52 -6 -24 -67 -80 -113 -105 -46
-24 -124 -105 -142 -148 -20 -47 -27 -177 -8 -136 6 11 47 45 91 74 85 57 132
115 158 195 17 53 21 59 30 44 11 -16 23 63 18 116 l-4 40 -12 -28z"/>
<path d="M2569 3507 c14 -36 14 -78 1 -113 -10 -25 -12 -26 -27 -12 -13 13
-20 14 -35 5 -29 -18 -47 12 -40 69 5 45 4 46 -16 33 -28 -18 -33 -30 -39
-118 -5 -63 -4 -75 11 -83 14 -8 17 -23 16 -71 -2 -71 12 -139 23 -120 5 7 3
22 -4 34 -14 27 5 129 24 129 8 0 8 3 2 8 -12 8 -14 63 -3 56 5 -3 13 8 19 25
13 38 26 39 40 4 l10 -27 28 48 c17 28 31 44 35 37 4 -6 -2 -24 -13 -40 -38
-53 -41 -73 -19 -139 16 -49 18 -69 10 -92 -6 -16 -7 -32 -3 -35 11 -6 34 82
25 96 -19 32 -22 70 -6 86 22 22 25 194 4 201 -7 2 -22 14 -33 26 l-20 21 10
-28z m-115 -145 c4 -7 3 -12 -2 -12 -14 0 -22 26 -21 63 l1 32 7 -35 c4 -20
11 -41 15 -48z"/>
<path d="M2225 3491 c-3 -6 -11 -9 -16 -5 -6 3 -9 -1 -7 -8 4 -20 -58 -72 -77
-64 -18 6 -16 -3 15 -103 19 -63 22 -85 16 -158 -8 -89 -24 -155 -25 -100 -1
19 -15 43 -47 75 l-45 47 6 -33 c4 -18 22 -55 41 -83 19 -28 34 -57 34 -64 0
-29 -13 -45 -36 -45 -21 0 -23 -3 -15 -18 5 -10 6 -24 2 -31 -5 -8 -19 4 -42
38 -42 62 -57 67 -24 9 14 -24 25 -51 25 -60 0 -25 -18 -32 -35 -14 -9 8 -29
23 -45 33 -33 19 -40 36 -13 31 23 -4 28 25 11 62 l-13 30 -17 -22 -18 -23 0
23 c0 12 7 34 16 47 12 19 22 23 40 19 34 -9 30 12 -3 22 -50 14 -56 11 -74
-45 -20 -58 -20 -57 28 -117 33 -41 41 -64 24 -64 -5 0 -17 7 -25 16 -20 20
-20 15 3 -36 14 -32 17 -50 10 -78 -12 -52 -11 -54 11 -42 15 8 20 8 20 -2 0
-9 3 -9 12 0 7 7 21 12 32 12 19 0 19 0 1 -14 -18 -13 -18 -14 2 -20 12 -4 24
-13 27 -21 3 -8 13 -15 21 -15 9 0 14 -4 10 -9 -3 -5 -1 -13 5 -16 6 -4 8 -21
4 -41 -4 -21 -2 -40 6 -49 18 -21 -2 -20 -68 5 -62 24 -112 26 -112 6 0 -7 18
-49 39 -92 31 -61 59 -97 124 -160 80 -78 101 -93 177 -130 60 -28 65 -32 63
-43 -4 -15 2 -14 39 9 18 11 41 20 51 20 19 0 23 25 6 36 -6 3 -9 18 -7 33 3
20 -5 36 -29 62 -18 18 -33 43 -33 53 0 19 0 19 22 0 19 -17 21 -17 15 -1 -19
48 -19 52 2 28 12 -13 21 -29 21 -37 0 -8 5 -14 10 -14 11 0 12 15 4 46 -8 28
-65 54 -120 54 -96 0 -154 49 -154 131 0 50 11 62 29 32 13 -23 14 1 2 25 -6
9 -12 30 -16 45 -3 16 -17 40 -31 54 -14 14 -23 28 -20 31 7 6 66 -47 66 -59
0 -17 41 -101 47 -96 3 4 0 13 -7 22 -20 24 -3 31 23 9 43 -39 103 -73 161
-93 57 -20 58 -20 53 -1 -3 11 -1 23 4 26 5 3 9 9 9 14 0 9 -137 103 -188 129
-73 39 -109 130 -98 250 3 37 6 67 6 69 0 1 4 2 9 2 6 0 12 -17 14 -37 3 -21
4 26 3 105 -2 124 -1 140 11 119 7 -14 15 -45 18 -70 3 -24 11 -64 18 -88 l13
-44 14 32 c10 22 17 28 23 20 13 -19 -5 73 -33 165 -4 15 -9 82 -9 150 -1 67
-4 124 -5 126 -2 2 -7 -2 -11 -7z m-29 -127 c-3 -8 -2 -12 4 -9 6 4 10 -10 10
-35 0 -22 7 -57 15 -77 20 -47 19 -51 -5 -20 -24 30 -47 86 -45 107 1 8 3 23
3 33 1 9 7 17 13 17 6 0 8 -7 5 -16z m-196 -539 c0 -6 -11 -12 -25 -13 -19 -1
-26 4 -31 23 -10 39 5 50 32 24 13 -12 24 -27 24 -34z m138 8 c3 -71 -4 -75
-73 -44 -62 28 -63 31 -3 50 20 7 42 19 48 27 20 23 26 16 28 -33z m123 -151
c63 -42 129 -95 129 -103 0 -31 -118 20 -147 64 -37 54 -29 71 18 39z m-141
-53 c0 -6 -4 -7 -10 -4 -5 3 -10 11 -10 16 0 6 5 7 10 4 6 -3 10 -11 10 -16z
m-114 -118 c31 -19 60 -76 44 -86 -26 -16 -79 31 -92 83 -7 27 7 28 48 3z
m151 -115 c-5 -15 -67 -20 -81 -6 -16 16 7 27 49 22 21 -3 34 -9 32 -16z m-52
-39 c11 0 39 3 63 7 34 6 42 5 42 -7 0 -16 -49 -37 -86 -37 -12 0 -29 7 -38
15 -8 8 -24 15 -35 15 -12 0 -21 5 -21 11 0 7 10 9 28 4 15 -4 36 -7 47 -8z
m100 -74 c-10 -44 -21 -47 -59 -17 -30 25 -33 30 -18 36 9 3 32 7 51 7 31 1
33 -1 26 -26z m128 -66 c17 -21 18 -30 9 -39 -10 -10 -15 -10 -21 1 -5 7 -14
10 -20 6 -7 -4 -23 1 -37 10 l-25 16 23 19 c29 25 46 22 71 -13z"/>
<path d="M3271 3414 c0 -11 3 -14 6 -6 3 7 2 16 -1 19 -3 4 -6 -2 -5 -13z"/>
<path d="M1841 3390 c0 -14 6 -38 14 -55 l14 -30 -6 30 c-3 17 -10 41 -14 55
l-7 25 -1 -25z"/>
<path d="M3227 3314 c-37 -74 -45 -100 -28 -90 11 7 74 156 69 162 -2 2 -21
-30 -41 -72z"/>
<path d="M1918 3168 c6 -6 18 -8 28 -6 14 3 12 5 -9 10 -19 3 -25 2 -19 -4z"/>
<path d="M2505 3160 c3 -5 -6 -32 -20 -60 -26 -52 -30 -97 -7 -92 9 1 12 -25
12 -100 0 -101 0 -102 -19 -83 -11 11 -27 49 -35 84 -17 67 -22 78 -32 69 -3
-3 1 -21 9 -39 16 -39 11 -150 -6 -161 -29 -18 -93 74 -117 167 l-10 40 5 -40
c3 -22 8 -51 11 -65 9 -35 -10 -16 -35 35 -11 22 -20 34 -21 26 -1 -37 63
-138 144 -226 25 -27 53 -66 63 -85 13 -29 17 -32 23 -16 5 16 7 16 19 2 18
-22 30 -20 24 4 -3 11 -1 20 4 20 5 0 6 34 1 83 -4 45 -8 142 -8 215 l-2 134
-20 -19 c-23 -20 -24 -21 20 65 17 32 32 42 32 20 0 -6 3 -8 6 -5 10 9 -16 37
-33 37 -8 0 -12 -4 -8 -10z"/>
<path d="M2560 3085 c12 -32 12 -35 1 -35 -5 0 -12 8 -14 18 -3 9 -5 -82 -6
-203 -1 -121 -3 -229 -5 -240 -2 -11 -1 -14 1 -7 5 13 34 17 32 5 -9 -54 14
-39 40 27 14 36 34 66 50 77 40 26 118 108 136 143 12 23 13 30 3 24 -7 -4 -1
4 15 19 15 14 27 32 27 39 -1 7 -7 2 -15 -12 -14 -24 -14 -24 -15 -3 0 12 7
43 16 68 8 26 13 52 11 58 -2 7 -16 -26 -31 -73 -62 -199 -175 -284 -174 -132
0 31 7 74 16 95 8 20 12 41 8 45 -12 12 -34 -27 -41 -71 -10 -64 -26 -110 -36
-100 -7 7 -13 116 -10 178 1 16 3 17 11 5 8 -12 10 -12 16 3 4 11 -1 33 -12
53 -23 43 -38 55 -24 19z"/>
<path d="M3115 3070 c-3 -5 -2 -10 4 -10 5 0 13 5 16 10 3 6 2 10 -4 10 -5 0
-13 -4 -16 -10z"/>
<path d="M2325 3018 c4 -17 16 -50 26 -72 11 -23 17 -33 14 -23 -27 97 -37
127 -42 127 -2 0 -1 -14 2 -32z"/>
<path d="M3266 2945 c-3 -8 -1 -15 4 -15 6 0 10 7 10 15 0 8 -2 15 -4 15 -2 0
-6 -7 -10 -15z"/>
<path d="M1847 2914 c-11 -11 -9 -139 3 -170 7 -18 7 -29 1 -33 -16 -10 2 -27
29 -27 14 0 34 -4 45 -8 17 -6 17 -5 -1 5 -17 9 -24 27 -33 84 -7 39 -11 76
-10 81 4 16 -26 76 -34 68z"/>
<path d="M1980 2651 c0 -4 -12 -6 -27 -4 -16 2 -3 -5 27 -16 74 -27 89 -26 54
4 -29 25 -54 33 -54 16z"/>
<path d="M2795 2559 c-27 -10 -62 -18 -77 -19 -29 0 -68 -34 -68 -58 0 -9 6
-7 18 8 12 14 32 23 62 26 76 7 98 14 114 40 19 28 18 28 -49 3z"/>
<path d="M2248 2521 c26 -25 41 -31 78 -31 25 0 54 -5 65 -10 10 -6 19 -7 19
-2 0 14 -48 32 -87 32 -20 0 -52 9 -72 21 l-36 21 33 -31z"/>
<path d="M2631 2371 c1 -32 -4 -67 -10 -78 -10 -19 -54 -33 -108 -33 -30 0
-63 57 -63 109 0 26 -4 40 -10 36 -17 -10 -11 -57 14 -120 30 -72 46 -85 108
-85 56 0 58 3 83 112 10 47 12 75 5 93 -15 39 -20 30 -19 -34z"/>
<path d="M2677 2313 c-4 -3 -7 -18 -6 -32 1 -26 1 -25 10 3 9 31 7 41 -4 29z"/>
<path d="M2412 2251 c1 -17 6 -31 10 -31 12 0 10 48 -2 55 -6 4 -10 -5 -8 -24z"/>
<path d="M2646 2214 c-9 -24 -7 -69 3 -58 12 13 22 74 12 74 -5 0 -12 -7 -15
-16z"/>
<path d="M2435 2185 c4 -11 10 -28 12 -37 3 -10 9 -18 14 -18 16 0 10 27 -12
51 -18 21 -20 21 -14 4z"/>
<path d="M2390 2034 c0 -5 5 -15 10 -20 7 -7 7 -21 -1 -43 -6 -17 -9 -34 -6
-37 3 -3 10 11 16 31 8 30 7 42 -4 59 -8 11 -15 16 -15 10z"/>
<path d="M3221 619 c-1 -4 -8 -23 -16 -43 -8 -20 -13 -36 -10 -36 9 0 36 62
31 73 -2 7 -5 9 -5 6z"/>
<path d="M4500 586 c-15 -39 -12 -46 6 -13 9 16 13 31 10 34 -3 3 -10 -6 -16
-21z"/>
<path d="M3016 563 c-14 -20 -23 -39 -20 -42 8 -8 54 47 54 65 0 22 -7 17 -34
-23z"/>
<path d="M4180 430 c0 -5 5 -10 10 -10 6 0 10 5 10 10 0 6 -4 10 -10 10 -5 0
-10 -4 -10 -10z"/>
<path d="M3918 534 c-5 -4 -8 -16 -8 -26 0 -11 -4 -17 -9 -14 -5 3 -12 -1 -15
-10 -17 -44 7 -47 29 -3 16 30 17 68 3 53z"/>
<path d="M3466 503 c-6 -14 -5 -15 5 -6 7 7 10 15 7 18 -3 3 -9 -2 -12 -12z"/>
<path d="M3766 388 c-18 -25 -20 -38 -8 -38 10 0 35 50 28 57 -2 2 -11 -6 -20
-19z"/>
<path d="M4346 391 c-10 -11 -16 -26 -14 -33 3 -8 12 0 22 20 19 37 17 40 -8
13z"/>
</g>
</svg>
